<svg xmlns="http://www.w3.org/2000/svg" version="1.1" xmlns:xlink="http://www.w3.org/1999/xlink" width="512" height="512" x="0" y="0" viewBox="0 0 100 100" style="enable-background:new 0 0 512 512" xml:space="preserve" class=""><g><path d="M23.859 16.877c-11.798 0-21.359 9.56-21.359 21.359 0 11.188 8.544 20.138 19.325 21.155-2.238 4.069-6.103 8.34-13.019 12.409-1.83 1.017-3.051 3.051-3.051 5.289 0 4.272 4.475 7.323 8.34 5.492 11.595-5.289 30.92-17.9 30.92-44.345 0-12.002-9.358-21.36-21.156-21.36zM76.341 16.877c-11.798 0-21.359 9.56-21.359 21.359 0 11.188 8.544 20.138 19.325 21.155-2.238 4.069-6.103 8.34-13.019 12.409-1.83 1.017-3.051 3.051-3.051 5.289 0 4.272 4.475 7.323 8.34 5.492 11.595-5.289 30.92-17.9 30.92-44.345.203-12.002-9.357-21.36-21.156-21.36z" fill="#ff623a" opacity="1" data-original="#000000" class=""></path></g></svg>