<svg width="715" height="716" viewBox="0 0 715 716" fill="none" xmlns="http://www.w3.org/2000/svg">
<path d="M581.161 300.865C581.077 300.982 580.983 301.103 580.883 301.208C580.883 301.208 579.032 303.25 575.443 306.851C573.947 308.355 571.512 308.358 570.011 306.858C568.507 305.362 568.496 302.902 570.001 301.43C573.388 298.031 575.153 296.09 575.187 296.052C576.61 294.483 579.037 294.36 580.61 295.786C582.079 297.112 582.284 299.301 581.161 300.865Z" fill="white"/>
<path d="M575.45 306.861C573.934 308.357 571.52 308.382 570.021 306.87C568.525 305.355 568.496 302.938 570.012 301.442C571.486 299.917 573.944 299.917 575.44 301.433C576.799 302.787 576.925 304.895 575.85 306.392C575.733 306.554 575.614 306.72 575.45 306.861Z" fill="white"/>
<path d="M564.974 316.793C564.825 317.001 564.673 317.213 564.443 317.357C560.875 320.657 557.066 324.03 553.049 327.517C551.73 328.651 549.811 328.778 548.355 327.733C548.106 327.554 547.886 327.333 547.666 327.112C546.438 325.663 546.527 323.52 547.584 322.136L547.48 322.194L548.052 321.66C548.124 321.648 548.184 321.565 548.255 321.553C552.079 318.248 555.789 314.924 559.268 311.749C560.031 311.037 560.997 310.658 562.032 310.709C563.068 310.759 563.989 311.231 564.66 311.965C565.906 313.302 566.02 315.338 564.974 316.793ZM542.05 336.512C541.871 336.761 541.662 337.052 541.37 337.284C537.541 340.333 533.509 343.489 529.364 346.627C528.034 347.689 526.201 347.696 524.829 346.71C524.538 346.501 524.235 346.221 524.033 345.887C522.781 344.295 523.098 341.748 524.732 340.526C528.936 337.305 532.911 334.228 536.537 331.285C537.897 330.182 539.832 330.121 541.257 331.208C541.507 331.388 541.726 331.608 541.946 331.829C543.044 333.197 543.066 335.098 542.05 336.512ZM518.04 354.758C517.772 355.132 517.491 355.435 517.157 355.636C513.15 358.495 509 361.377 504.838 364.187C504.809 364.229 504.707 364.282 504.636 364.294L504.475 364.43C503.169 365.194 501.509 365.137 500.261 364.241C499.887 363.972 499.543 363.661 499.3 363.298C498.167 361.539 498.65 359.112 500.367 357.95C504.4 355.23 508.416 352.447 512.689 349.395L513.938 348.533L513.669 348.907C514.777 348.506 516.053 348.66 517.078 349.339C517.453 349.608 517.764 349.964 518.04 350.282C518.998 351.669 518.996 353.427 518.04 354.758ZM492.957 371.602C492.688 371.976 492.309 372.328 491.916 372.613C487.555 375.35 483.215 377.969 478.938 380.501C477.603 381.307 475.901 381.219 474.683 380.282C474.267 379.983 473.914 379.597 473.659 379.162C472.596 377.396 473.224 374.941 475.033 373.914C479.14 371.443 483.453 368.861 487.808 366.132C489.132 365.255 490.792 365.313 492.04 366.209C492.455 366.508 492.812 366.889 493.096 367.283C493.941 368.652 493.883 370.313 492.957 371.602ZM466.961 386.908C466.692 387.283 466.412 387.585 466.048 387.828L465.714 388.03C465.655 388.113 465.583 388.125 465.512 388.137C461.241 390.484 456.78 392.834 452.28 395.149C450.993 395.801 449.478 395.715 448.356 394.909C447.815 394.521 447.403 394.042 447.095 393.505C446.165 391.64 446.915 389.279 448.783 388.345C453.283 386.029 457.7 383.654 462.015 381.332C463.32 380.568 464.879 380.679 466.085 381.545C466.543 381.874 466.937 382.29 467.249 382.822C467.939 384.143 467.827 385.702 466.961 386.908ZM440.083 400.635C439.724 401.134 439.241 401.544 438.663 401.822L438.63 401.868C438.529 401.921 438.46 401.928 438.43 401.97C433.964 404.064 429.391 406.131 424.761 408.101C423.533 408.669 422.117 408.534 420.994 407.728C420.454 407.34 419.991 406.755 419.701 406.106C418.881 404.263 419.819 401.904 421.708 401.117C426.224 399.129 430.801 397.058 435.366 394.915C436.623 394.305 438.111 394.428 439.245 395.306C439.744 395.664 440.195 396.177 440.432 396.726C441.042 397.983 440.889 399.512 440.083 400.635ZM412.399 412.586C411.951 413.21 411.367 413.673 410.717 413.963C406.135 415.778 401.328 417.557 396.478 419.306C395.257 419.69 393.912 419.544 392.902 418.755C392.279 418.307 391.846 417.681 391.544 416.96C390.9 415.048 391.951 412.708 393.86 412.068C398.71 410.319 403.446 408.551 407.858 406.797C409.067 406.342 410.412 406.488 411.482 407.193C412.105 407.641 412.568 408.226 412.87 408.947C413.364 410.19 413.146 411.546 412.399 412.586ZM383.982 422.75C383.504 423.415 382.845 423.894 382.086 424.161C377.303 425.643 372.376 427.148 367.468 428.54C366.379 428.829 365.207 428.617 364.265 427.998C363.516 427.46 362.988 426.703 362.776 425.857C362.192 423.862 363.445 421.679 365.413 421.132C370.149 419.805 374.902 418.365 379.471 416.919L379.715 416.842C380.865 416.47 382.111 416.666 383.109 417.382C383.775 417.86 384.288 418.55 384.559 419.313C384.928 420.467 384.699 421.752 383.982 422.75ZM354.966 430.851C354.429 431.599 353.645 432.164 352.757 432.347C347.612 433.631 342.755 434.688 337.89 435.669C336.83 435.916 335.762 435.647 334.889 435.02C334.099 434.453 333.556 433.628 333.404 432.699C332.936 430.718 334.346 428.579 336.365 428.138C341.302 427.145 346.227 426.08 350.955 424.938C352.045 424.649 353.259 424.89 354.174 425.547C354.851 426.097 355.382 426.85 355.564 427.737C355.847 428.835 355.594 429.977 354.966 430.851ZM325.441 436.94C324.847 437.768 323.944 438.323 322.946 438.483C317.73 439.339 312.887 440.027 308.109 440.623C308.037 440.635 307.966 440.646 307.894 440.658L307.323 440.752L307.352 440.71C306.573 440.655 305.838 440.449 305.215 440.001C304.311 439.415 303.749 438.443 303.573 437.372C303.358 435.389 304.863 433.381 306.792 433.065L306.938 433.037C306.979 433.067 307.009 433.026 307.081 433.014C311.975 432.431 316.875 431.664 321.663 430.879C322.707 430.741 323.692 430.95 324.524 431.547C325.355 432.145 325.939 432.999 326.142 434.033C326.276 435.075 326.041 436.104 325.441 436.94ZM295.544 440.739C294.887 441.654 293.874 442.187 292.763 442.329C287.801 442.743 282.688 443.104 277.565 443.391C276.696 443.46 275.84 443.16 275.091 442.622C274.176 441.965 273.602 440.922 273.557 439.755C273.443 437.72 275.115 435.831 277.18 435.676C281.877 435.456 286.705 435.141 291.95 434.685L292.096 434.657C292.965 434.588 293.881 434.804 294.588 435.312C295.533 435.928 296.149 437.001 296.265 438.156C296.298 439.075 296.081 439.991 295.544 440.739ZM265.423 442.304C264.736 443.26 263.592 443.888 262.339 443.877C257.178 443.953 252.078 443.946 247.138 443.802C246.4 443.776 245.627 443.536 245.003 443.088C243.964 442.342 243.365 441.156 243.41 439.864C243.44 437.805 245.319 436.066 247.348 436.137C252.246 436.251 257.276 436.27 262.252 436.187C263.061 436.201 263.903 436.434 264.541 436.949C265.539 437.666 266.126 438.78 266.14 439.989C266.171 440.824 265.931 441.597 265.423 442.304ZM235.323 441.557C234.547 442.639 233.248 443.219 231.945 443.102C226.913 442.823 221.81 442.379 216.815 441.874C216.107 441.807 215.405 441.555 214.85 441.1C213.769 440.323 213.192 439.02 213.335 437.679C213.549 435.626 215.523 434.019 217.576 434.232C222.431 434.757 227.445 435.149 232.453 435.461L232.494 435.491C233.158 435.533 233.818 435.755 234.358 436.143C235.481 436.949 236.091 438.207 236.016 439.54C235.996 440.269 235.744 440.971 235.323 441.557ZM205.325 438.476C204.489 439.64 203.088 440.273 201.66 440.067C196.853 439.388 191.766 438.571 186.668 437.683C186.103 437.593 185.555 437.389 185.056 437.03C183.922 436.153 183.277 434.681 183.557 433.237C183.896 431.274 185.864 429.85 187.842 430.08L188 430.124C188.071 430.112 188.184 430.13 188.267 430.19C193.027 431.024 197.917 431.762 202.725 432.441C203.403 432.55 203.992 432.784 204.491 433.142C205.625 434.02 206.217 435.391 206.044 436.773C205.917 437.388 205.683 437.977 205.325 438.476ZM175.668 433.25C174.772 434.498 173.217 435.083 171.736 434.776C166.983 433.758 162.135 432.608 156.925 431.261C156.431 431.159 155.956 430.944 155.54 430.645C154.322 429.707 153.767 428.111 154.142 426.622C154.654 424.594 156.8 423.361 158.789 423.838C163.536 425.041 168.452 426.183 173.36 427.249C173.853 427.352 174.332 427.563 174.748 427.862C176.025 428.716 176.61 430.271 176.315 431.824C176.182 432.359 175.964 432.839 175.668 433.25ZM146.455 425.828C145.708 426.868 144.525 427.462 143.314 427.481L143.938 427.929L142.255 427.287C142.183 427.299 142.142 427.269 142.142 427.269C137.289 425.864 132.537 424.405 127.999 422.912C127.916 422.852 127.845 422.864 127.729 422.85L127.378 422.724L127.408 422.682C127.17 422.574 126.932 422.467 126.683 422.287C125.352 421.332 124.773 419.592 125.283 418.004C125.91 415.99 128.148 414.893 130.087 415.529C134.666 417.053 139.335 418.451 144.384 419.935C144.848 420.079 145.252 420.306 145.585 420.545C146.874 421.471 147.482 423.169 147.002 424.715C146.894 425.129 146.697 425.491 146.455 425.828Z" fill="white"/>
<path d="M117.75 416.452C116.771 417.816 114.966 418.423 113.312 417.822C110.904 416.943 108.485 416.038 106.066 415.114C104.085 414.353 103.094 412.134 103.855 410.153C104.597 408.19 106.834 407.181 108.811 407.939C111.199 408.853 113.575 409.74 115.952 410.609C117.943 411.339 118.968 413.544 118.238 415.535C118.116 415.863 117.95 416.173 117.75 416.452Z" fill="white"/>
<path d="M581.426 346.908C580.632 348.014 579.281 348.658 577.836 348.484C575.735 348.223 574.236 346.308 574.493 344.204L580.137 298.219L535.063 300.189C532.942 300.28 531.154 298.636 531.06 296.52C530.961 294.394 532.612 292.604 534.728 292.51L584.334 290.347C585.46 290.298 586.554 290.75 587.321 291.578C588.087 292.406 588.452 293.531 588.312 294.648L582.118 345.129C582.033 345.8 581.788 346.405 581.426 346.908Z" fill="white"/>
</svg>
