<svg xmlns="http://www.w3.org/2000/svg" version="1.1" xmlns:xlink="http://www.w3.org/1999/xlink" width="512" height="512" x="0" y="0" viewBox="0 0 24 24" style="enable-background:new 0 0 512 512" xml:space="preserve" class=""><g><path d="M16.488 10.726A3 3 0 0 1 13.5 14h-3.294c-.812 0-1.402-.791-1.144-1.562.538-1.612 1.533-3.949 3.727-4.371 1.755-.338 3.542.879 3.7 2.659Zm1.678-1.48 5.126-5.126c.943-.942.945-2.47.003-3.413a2.41 2.41 0 0 0-3.409-.002c-.032.032-4.953 5.53-4.953 5.53a4.992 4.992 0 0 1 3.232 3.011ZM22.5 9a1.5 1.5 0 0 0-1.5 1.5v3c0 1.379-1.121 2.5-2.5 2.5h-13A2.503 2.503 0 0 1 3 13.5v-6C3 6.121 4.122 5 5.5 5h7a1.5 1.5 0 0 0 0-3h-7A5.506 5.506 0 0 0 0 7.5v6C0 16.532 2.467 19 5.5 19h5v2h-3a1.5 1.5 0 1 0 0 3h9a1.5 1.5 0 0 0 0-3h-3v-2h5c3.032 0 5.5-2.468 5.5-5.5v-3A1.5 1.5 0 0 0 22.5 9Z" fill="#ffffff" opacity="1" data-original="#000000" class=""></path></g></svg>