<svg width="64" height="65" viewBox="0 0 64 65" fill="none" xmlns="http://www.w3.org/2000/svg">
<g clip-path="url(#clip0_3_17)">
<path d="M31.8372 16.2043C30.2745 14.6443 30.2745 12.1083 31.8372 10.5483L35.8372 6.54832C37.3999 4.98566 39.9305 4.98566 41.4932 6.54832C43.0559 8.10832 43.0559 10.6443 41.4932 12.2043L37.4932 16.2043C36.7119 16.9857 35.6878 17.375 34.6638 17.375C33.6398 17.375 32.6159 16.9857 31.8345 16.2043H31.8372ZM7.83718 16.2043C8.61852 16.9857 9.64252 17.375 10.6665 17.375C11.6905 17.375 12.7145 16.9857 13.4959 16.2043C15.0585 14.6443 15.0585 12.1083 13.4959 10.5483L9.49585 6.54832C7.93318 4.98566 5.40252 4.98566 3.83985 6.54832C2.27718 8.10832 2.27718 10.6443 3.83985 12.2043L7.83985 16.2043H7.83718ZM22.6665 16.0417C24.8745 16.0417 26.6665 14.2523 26.6665 12.0417V4.04166C26.6665 1.83099 24.8745 0.0416565 22.6665 0.0416565C20.4585 0.0416565 18.6665 1.83099 18.6665 4.04166V12.0417C18.6665 14.2523 20.4585 16.0417 22.6665 16.0417ZM56.9785 44.4043L46.3279 25.487L57.4212 14.943C59.0239 13.4203 59.0879 10.887 57.5652 9.28699C56.0425 7.68166 53.5092 7.62032 51.9119 9.14299L23.7439 35.919C23.6719 35.9883 23.5439 36.1083 23.2852 35.9963C23.0292 35.8817 23.0345 35.7083 23.0372 35.6177C23.0372 35.6177 23.3145 26.2363 23.2719 25.9857C22.9145 23.759 21.0185 21.4603 18.0879 21.375C15.0825 21.2763 13.0692 23.591 12.6532 25.911C12.6265 26.063 11.8025 39.2763 11.8025 39.2763C11.6105 40.3643 11.2959 43.191 12.2985 46.8763L1.27718 57.111C-0.341483 58.615 -0.437483 61.1457 1.06918 62.7643C1.85585 63.6123 2.92518 64.0417 3.99985 64.0417C4.97585 64.0417 5.95185 63.687 6.72252 62.9723L19.6399 50.9723C20.8719 49.8283 21.2559 48.0417 20.6052 46.495C20.0665 45.207 19.7999 44.0603 19.6799 43.1377C19.7919 43.1937 19.9039 43.2497 20.0212 43.3003C23.1332 44.6897 26.7572 44.079 29.2479 41.7243L40.3492 31.1697L50.0105 48.3297C51.1252 50.3083 50.8612 52.7777 49.4772 54.3483L46.6959 57.2283C45.1625 58.8177 45.2052 61.3483 46.7945 62.8843C47.5705 63.6337 48.5732 64.007 49.5732 64.007C50.6212 64.007 51.6665 63.599 52.4505 62.7857L55.3492 59.7777C59.1119 55.527 59.7679 49.351 56.9785 44.4043Z" fill="white"/>
</g>
<defs>
<clipPath id="clip0_3_17">
<rect width="64" height="64" fill="white" transform="translate(0 0.0416565)"/>
</clipPath>
</defs>
</svg>
