<svg width="59" height="59" viewBox="0 0 59 59" fill="none" xmlns="http://www.w3.org/2000/svg">
<g clip-path="url(#clip0_3_11)">
<path d="M23.3542 59H3.6875C2.70951 59 1.77158 58.6115 1.08004 57.92C0.388503 57.2284 0 56.2905 0 55.3125C0 54.3345 0.388503 53.3966 1.08004 52.705C1.77158 52.0135 2.70951 51.625 3.6875 51.625H23.3542C24.3322 51.625 25.2701 52.0135 25.9616 52.705C26.6532 53.3966 27.0417 54.3345 27.0417 55.3125C27.0417 56.2905 26.6532 57.2284 25.9616 57.92C25.2701 58.6115 24.3322 59 23.3542 59Z" fill="white"/>
<path d="M18.4375 46.7083H3.6875C2.70951 46.7083 1.77158 46.3198 1.08004 45.6283C0.388503 44.9368 0 43.9988 0 43.0208C0 42.0429 0.388503 41.1049 1.08004 40.4134C1.77158 39.7218 2.70951 39.3333 3.6875 39.3333H18.4375C19.4155 39.3333 20.3534 39.7218 21.045 40.4134C21.7365 41.1049 22.125 42.0429 22.125 43.0208C22.125 43.9988 21.7365 44.9368 21.045 45.6283C20.3534 46.3198 19.4155 46.7083 18.4375 46.7083Z" fill="white"/>
<path d="M13.5208 34.4167H3.6875C2.70951 34.4167 1.77158 34.0282 1.08004 33.3366C0.388503 32.6451 0 31.7071 0 30.7292C0 29.7512 0.388503 28.8132 1.08004 28.1217C1.77158 27.4302 2.70951 27.0417 3.6875 27.0417H13.5208C14.4988 27.0417 15.4368 27.4302 16.1283 28.1217C16.8198 28.8132 17.2083 29.7512 17.2083 30.7292C17.2083 31.7071 16.8198 32.6451 16.1283 33.3366C15.4368 34.0282 14.4988 34.4167 13.5208 34.4167Z" fill="white"/>
<path d="M35.6458 58.3166C34.7431 58.3175 33.8714 57.9872 33.1958 57.3883C32.5203 56.7895 32.088 55.9636 31.9807 55.0672C31.8734 54.1709 32.0987 53.2663 32.6138 52.525C33.1289 51.7836 33.8981 51.2569 34.7756 51.0448C38.4119 50.1534 41.7634 48.3559 44.5177 45.8199C47.272 43.2839 49.3395 40.0919 50.5275 36.5414C51.7155 32.9909 51.9854 29.1974 51.312 25.5145C50.6386 21.8316 49.0439 18.379 46.6763 15.4786C44.3088 12.5782 41.2456 10.3244 37.7721 8.92707C34.2987 7.52977 30.528 7.03451 26.8115 7.48743C23.095 7.94036 19.5537 9.32674 16.5175 11.5174C13.4812 13.708 11.049 16.6316 9.44738 20.0157C9.02023 20.8854 8.26797 21.552 7.35324 21.8714C6.43851 22.1908 5.43481 22.1374 4.55916 21.7227C3.68352 21.3079 3.00628 20.5652 2.67387 19.6551C2.34147 18.745 2.38061 17.7407 2.78284 16.8592C4.91707 12.3483 8.15871 8.45117 12.2056 5.53117C16.2524 2.61116 20.9728 0.763359 25.9265 0.160006C30.8802 -0.443347 35.9061 0.217398 40.5356 2.08065C45.165 3.94389 49.2473 6.94898 52.4019 10.8158C55.5566 14.6825 57.6808 19.2851 58.5765 24.1944C59.4723 29.1037 59.1104 34.1599 57.5247 38.8916C55.939 43.6233 53.181 47.8764 49.5079 51.2546C45.8348 54.6327 41.3662 57.0258 36.5185 58.2109C36.2328 58.2805 35.9399 58.316 35.6458 58.3166Z" fill="white"/>
<path d="M30.7292 14.75C29.7512 14.75 28.8133 15.1385 28.1217 15.83C27.4302 16.5216 27.0417 17.4595 27.0417 18.4375V28.9911C27.042 30.295 27.5602 31.5454 28.4823 32.4672L32.8901 36.875C33.5855 37.5467 34.517 37.9184 35.4839 37.91C36.4507 37.9016 37.3756 37.5138 38.0593 36.8301C38.743 36.1464 39.1308 35.2215 39.1392 34.2547C39.1476 33.2878 38.7759 32.3563 38.1042 31.6609L34.4167 27.9734V18.4375C34.4167 17.4595 34.0282 16.5216 33.3366 15.83C32.6451 15.1385 31.7072 14.75 30.7292 14.75Z" fill="white"/>
</g>
<defs>
<clipPath id="clip0_3_11">
<rect width="59" height="59" fill="white"/>
</clipPath>
</defs>
</svg>
