<svg width="62" height="62" viewBox="0 0 62 62" fill="none" xmlns="http://www.w3.org/2000/svg">
<g clip-path="url(#clip0_3_21)">
<path d="M31 0C13.9061 0 0 13.9061 0 31C0 48.0939 13.9061 62 31 62C48.0939 62 62 48.0939 62 31C62 13.9061 48.0939 0 31 0ZM31 54.25C18.1789 54.25 7.75 43.8185 7.75 31C7.75 27.8922 8.36483 24.9266 9.47567 22.2141L11.8472 24.707C12.5317 25.4252 13.4798 25.8333 14.4718 25.8333H19.5067C20.2507 25.8333 20.9637 26.1278 21.4907 26.6548L22.4543 27.6184C22.9658 28.1299 23.2526 28.8222 23.2526 29.543V32.0307C23.2526 33.0253 23.6478 33.976 24.3505 34.6787L27.4247 37.7528C28.0627 38.3909 28.4218 39.2563 28.4218 40.1579V46.2675C28.4218 47.8227 29.6825 49.0833 31.2377 49.0833H31.7879C32.8858 49.0833 33.883 48.4453 34.3428 47.4481L40.1321 34.9034C40.8218 33.4102 40.2922 31.6407 38.8998 30.7675L32.2813 26.6316C31.4469 26.1097 30.4833 25.8333 29.4991 25.8333H25.8023C24.9989 25.8333 24.2265 25.513 23.6582 24.9447L22.1288 23.4153C21.3228 22.6093 21.3228 21.3047 22.1288 20.5013L23.4954 19.1347C24.1232 18.507 25.0816 18.352 25.8747 18.7498L28.148 19.8865C29.0806 20.3541 30.2095 20.1707 30.9483 19.4318L30.9561 19.4241C31.744 18.6362 31.8938 17.4142 31.3203 16.461L29.1581 12.8547C28.706 12.1003 28.7163 11.1652 29.1942 10.4263C29.6334 9.74692 30.2379 8.8195 30.9328 7.75258C30.9561 7.75258 30.9793 7.75258 31.0026 7.75258C39.1633 7.75258 46.3553 11.9815 50.5042 18.3597L48.639 19.437C47.3732 20.1655 46.7454 21.6457 47.1019 23.0614L48.7217 29.5378C48.9542 30.4678 49.5819 31.248 50.4396 31.6742L54.1182 33.5007C52.8679 45.1489 42.9789 54.2526 31.0026 54.2526L31 54.25Z" fill="white"/>
</g>
<defs>
<clipPath id="clip0_3_21">
<rect width="62" height="62" fill="white"/>
</clipPath>
</defs>
</svg>
