<svg xmlns="http://www.w3.org/2000/svg" version="1.1" xmlns:xlink="http://www.w3.org/1999/xlink" width="512" height="512" x="0" y="0" viewBox="0 0 24 24" style="enable-background:new 0 0 512 512" xml:space="preserve"><circle r="12" cx="12" cy="12" fill="#ff623a" shape="circle"></circle><g transform="matrix(0.6299999999999999,0,0,0.6299999999999999,4.438927263021469,4.441072692871095)"><path d="M21.92 6.62a1 1 0 0 0-.54-.54A1 1 0 0 0 21 6h-5a1 1 0 0 0 0 2h2.59L13 13.59l-3.29-3.3a1 1 0 0 0-1.42 0l-6 6a1 1 0 0 0 0 1.42 1 1 0 0 0 1.42 0L9 12.41l3.29 3.3a1 1 0 0 0 1.42 0L20 9.41V12a1 1 0 0 0 2 0V7a1 1 0 0 0-.08-.38z" fill="#ffffff" opacity="1" data-original="#000000"></path></g></svg>