<svg width="60" height="60" viewBox="0 0 60 60" fill="none" xmlns="http://www.w3.org/2000/svg">
<g clip-path="url(#clip0_3_8)">
<path d="M56.25 52.5H13.75C12.0924 52.5 10.5027 51.8415 9.33058 50.6694C8.15848 49.4973 7.5 47.9076 7.5 46.25V3.75C7.5 2.75544 7.10491 1.80161 6.40165 1.09835C5.69839 0.395088 4.74456 0 3.75 0C2.75544 0 1.80161 0.395088 1.09835 1.09835C0.395088 1.80161 0 2.75544 0 3.75L0 46.25C0.00397042 49.8955 1.4539 53.3906 4.03167 55.9683C6.60943 58.5461 10.1045 59.996 13.75 60H56.25C57.2446 60 58.1984 59.6049 58.9016 58.9016C59.6049 58.1984 60 57.2446 60 56.25C60 55.2554 59.6049 54.3016 58.9016 53.5984C58.1984 52.8951 57.2446 52.5 56.25 52.5Z" fill="white"/>
<path d="M56.25 9.94H48.535C48.0406 9.94011 47.5574 10.0868 47.1463 10.3615C46.7353 10.6362 46.415 11.0266 46.2258 11.4834C46.0366 11.9401 45.9871 12.4427 46.0835 12.9276C46.18 13.4125 46.418 13.8579 46.7675 14.2075L48.6 16.0375L39.6325 25C39.5164 25.1164 39.3784 25.2088 39.2266 25.2718C39.0747 25.3348 38.9119 25.3672 38.7475 25.3672C38.5831 25.3672 38.4203 25.3348 38.2684 25.2718C38.1165 25.2088 37.9786 25.1164 37.8625 25L37.4375 24.575C35.7709 22.9829 33.5548 22.0945 31.25 22.0945C28.9452 22.0945 26.7291 22.9829 25.0625 24.575L14.8125 34.825C14.4543 35.1709 14.1686 35.5847 13.9721 36.0422C13.7756 36.4998 13.6721 36.9918 13.6678 37.4897C13.6635 37.9877 13.7584 38.4815 13.9469 38.9423C14.1355 39.4032 14.4139 39.8219 14.766 40.174C15.1181 40.5261 15.5368 40.8045 15.9977 40.9931C16.4585 41.1816 16.9523 41.2765 17.4502 41.2722C17.9482 41.2679 18.4402 41.1644 18.8978 40.9679C19.3553 40.7713 19.7691 40.4857 20.115 40.1275L30.365 29.8775C30.4811 29.7611 30.619 29.6687 30.7709 29.6057C30.9228 29.5427 31.0856 29.5103 31.25 29.5103C31.4144 29.5103 31.5772 29.5427 31.7291 29.6057C31.8809 29.6687 32.0189 29.7611 32.135 29.8775L32.56 30.3025C34.2271 31.8934 36.443 32.7811 38.7475 32.7811C41.0519 32.7811 43.2678 31.8934 44.935 30.3025L53.9 21.34L55.73 23.1725C56.0795 23.5229 56.5251 23.7617 57.0104 23.8586C57.4957 23.9555 57.9989 23.9062 58.4562 23.7169C58.9134 23.5276 59.3042 23.2069 59.5791 22.7953C59.8539 22.3838 60.0004 21.8999 60 21.405V13.69C60 12.6954 59.6049 11.7416 58.9016 11.0384C58.1984 10.3351 57.2446 9.94 56.25 9.94Z" fill="white"/>
</g>
<defs>
<clipPath id="clip0_3_8">
<rect width="60" height="60" fill="white"/>
</clipPath>
</defs>
</svg>
