<svg xmlns="http://www.w3.org/2000/svg" version="1.1" xmlns:xlink="http://www.w3.org/1999/xlink" width="512" height="512" x="0" y="0" viewBox="0 0 682.667 682.667" style="enable-background:new 0 0 512 512" xml:space="preserve" class=""><circle r="341.3335" cx="341.3335" cy="341.3335" fill="#ff623a" shape="circle"></circle><g transform="matrix(0.5699999999999998,0,0,0.5699999999999998,146.77269470214847,146.77384128570563)"><defs><clipPath id="a" clipPathUnits="userSpaceOnUse"><path d="M0 512h512V0H0Z" fill="#ffffff" opacity="1" data-original="#000000" class=""></path></clipPath></defs><g clip-path="url(#a)" transform="matrix(1.33333 0 0 -1.33333 0 682.667)"><path d="M0 0c12.549 12.548 12.549 32.896 0 45.445-12.548 12.548-32.896 12.548-45.444 0C-59.317 31.563-77.007 13.882-90.889 0c-12.548-12.548-12.548-32.896 0-45.444 12.557-12.549 32.897-12.549 45.445 0C-31.562-31.563-13.873-13.881 0 0Z" style="stroke-width:30;stroke-linecap:round;stroke-linejoin:round;stroke-miterlimit:10;stroke-dasharray:none;stroke-opacity:1" transform="translate(379.255 264.94)" fill="none" stroke="#ffffff" stroke-width="30" stroke-linecap="round" stroke-linejoin="round" stroke-miterlimit="10" stroke-dasharray="none" stroke-opacity="" data-original="#000000" opacity="1"></path><path d="M0 0c12.548 12.548 12.548 32.896 0 45.445-12.548 12.548-32.896 12.548-45.444 0L-79.53 11.359c-12.548-12.548-12.548-32.888 0-45.444 12.548-12.548 32.896-12.548 45.444 0C-23.401-23.393-10.685-10.684 0 0Z" style="stroke-width:30;stroke-linecap:round;stroke-linejoin:round;stroke-miterlimit:10;stroke-dasharray:none;stroke-opacity:1" transform="translate(413.34 208.137)" fill="none" stroke="#ffffff" stroke-width="30" stroke-linecap="round" stroke-linejoin="round" stroke-miterlimit="10" stroke-dasharray="none" stroke-opacity="" data-original="#000000" opacity="1"></path><path d="M0 0a32.11 32.11 0 0 1 9.415 22.718A32.115 32.115 0 0 1 0 45.445a32.118 32.118 0 0 1-22.718 9.407 32.126 32.126 0 0 1-22.719-9.407 30434.691 30434.691 0 0 1-22.726-22.727A32.121 32.121 0 0 1-77.569 0a32.121 32.121 0 0 1 9.406-22.718 32.115 32.115 0 0 1 22.726-9.415 32.11 32.11 0 0 1 22.719 9.415L0 0Z" style="stroke-width:30;stroke-linecap:round;stroke-linejoin:round;stroke-miterlimit:10;stroke-dasharray:none;stroke-opacity:1" transform="translate(447.418 151.333)" fill="none" stroke="#ffffff" stroke-width="30" stroke-linecap="round" stroke-linejoin="round" stroke-miterlimit="10" stroke-dasharray="none" stroke-opacity="" data-original="#000000" opacity="1"></path><path d="M0 0s49.405 49.397 79.53 79.522a32.151 32.151 0 0 1 9.408 22.726 32.119 32.119 0 0 1-9.408 22.718 32.124 32.124 0 0 1-45.444 0L-136.325-45.445s-7.174 31.065-14.935 64.709a47.199 47.199 0 0 1-32.984 34.76 47.18 47.18 0 0 1-46.385-12.002c-.008 0-.008-.008-.008-.008l.193-192.8-48.2-48.2 96.4-96.4h139.563a48.196 48.196 0 0 1 34.077 14.123c34.865 34.856 122.211 122.211 122.211 122.211" style="stroke-width:30;stroke-linecap:round;stroke-linejoin:round;stroke-miterlimit:10;stroke-dasharray:none;stroke-opacity:1" transform="translate(333.81 310.386)" fill="none" stroke="#ffffff" stroke-width="30" stroke-linecap="round" stroke-linejoin="round" stroke-miterlimit="10" stroke-dasharray="none" stroke-opacity="" data-original="#000000" opacity="1"></path><path d="m0 0 11.359-11.359c31.37-31.37 31.37-82.237 0-113.607" style="stroke-width:30;stroke-linecap:round;stroke-linejoin:round;stroke-miterlimit:10;stroke-dasharray:none;stroke-opacity:1" transform="translate(197.485 264.94)" fill="none" stroke="#ffffff" stroke-width="30" stroke-linecap="round" stroke-linejoin="round" stroke-miterlimit="10" stroke-dasharray="none" stroke-opacity="" data-original="#000000" opacity="1"></path><path d="M0 0v64.267" style="stroke-width:30;stroke-linecap:round;stroke-linejoin:round;stroke-miterlimit:10;stroke-dasharray:none;stroke-opacity:1" transform="translate(199.767 432.733)" fill="none" stroke="#ffffff" stroke-width="30" stroke-linecap="round" stroke-linejoin="round" stroke-miterlimit="10" stroke-dasharray="none" stroke-opacity="" data-original="#000000" opacity="1"></path><path d="m0 0-16.066 16.066" style="stroke-width:30;stroke-linecap:round;stroke-linejoin:round;stroke-miterlimit:10;stroke-dasharray:none;stroke-opacity:1" transform="translate(135.5 432.733)" fill="none" stroke="#ffffff" stroke-width="30" stroke-linecap="round" stroke-linejoin="round" stroke-miterlimit="10" stroke-dasharray="none" stroke-opacity="" data-original="#000000" opacity="1"></path><path d="m0 0 16.066 16.066" style="stroke-width:30;stroke-linecap:round;stroke-linejoin:round;stroke-miterlimit:10;stroke-dasharray:none;stroke-opacity:1" transform="translate(264.033 432.733)" fill="none" stroke="#ffffff" stroke-width="30" stroke-linecap="round" stroke-linejoin="round" stroke-miterlimit="10" stroke-dasharray="none" stroke-opacity="" data-original="#000000" opacity="1"></path></g></g></svg>