<svg xmlns="http://www.w3.org/2000/svg" version="1.1" xmlns:xlink="http://www.w3.org/1999/xlink" width="512" height="512" x="0" y="0" viewBox="0 0 682.667 682.667" style="enable-background:new 0 0 512 512" xml:space="preserve" class=""><circle r="341.3335" cx="341.3335" cy="341.3335" fill="#ff623a" shape="circle"></circle><g transform="matrix(0.57,0,0,0.57,146.7730055427552,146.77361820220946)"><defs><clipPath id="a" clipPathUnits="userSpaceOnUse"><path d="M0 512h512V0H0Z" fill="#ffffff" opacity="1" data-original="#000000"></path></clipPath></defs><g clip-path="url(#a)" transform="matrix(1.33333 0 0 -1.33333 0 682.667)"><path d="m0 0-120.111 11.542 96.898 96.899C8.692 140.346 56.964 146.322 95 126.368" style="stroke-width:30;stroke-linecap:round;stroke-linejoin:round;stroke-miterlimit:22.926;stroke-dasharray:none;stroke-opacity:1" transform="translate(151 284.33)" fill="none" stroke="#ffffff" stroke-width="30" stroke-linecap="round" stroke-linejoin="round" stroke-miterlimit="22.926" stroke-dasharray="none" stroke-opacity="" data-original="#000000" opacity="1"></path><path d="m0 0 11.359-118.205 96.9 96.899c33.06 33.061 38.279 83.697 15.655 122.306" style="stroke-width:30;stroke-linecap:round;stroke-linejoin:round;stroke-miterlimit:22.926;stroke-dasharray:none;stroke-opacity:1" transform="translate(284.606 149)" fill="none" stroke="#ffffff" stroke-width="30" stroke-linecap="round" stroke-linejoin="round" stroke-miterlimit="22.926" stroke-dasharray="none" stroke-opacity="" data-original="#000000" opacity="1"></path><path d="M0 0a462.679 462.679 0 0 0-22.896-24.614c-40.417-40.417-85.481-70.717-129.972-89.73-13.028-5.568-27.358-2.8-37.376 7.219l-72.741 72.74c-10.019 10.018-12.786 24.348-7.218 37.377 19.013 44.491 49.312 89.554 89.729 129.972 84.795 84.795 190.04 125.085 267.551 109.973C100.758 172.771 69.037 79.877 0 0" style="stroke-width:30;stroke-linecap:round;stroke-linejoin:round;stroke-miterlimit:22.926;stroke-dasharray:none;stroke-opacity:1" transform="translate(406.766 251)" fill="none" stroke="#ffffff" stroke-width="30" stroke-linecap="round" stroke-linejoin="round" stroke-miterlimit="22.926" stroke-dasharray="none" stroke-opacity="" data-original="#000000" opacity="1"></path><path d="m0 0 107.113-107.113" style="stroke-width:30;stroke-linecap:round;stroke-linejoin:round;stroke-miterlimit:22.926;stroke-dasharray:none;stroke-opacity:1" transform="translate(366.637 477.461)" fill="none" stroke="#ffffff" stroke-width="30" stroke-linecap="round" stroke-linejoin="round" stroke-miterlimit="22.926" stroke-dasharray="none" stroke-opacity="" data-original="#000000" opacity="1"></path><path d="m0 0 122.718-122.717" style="stroke-width:30;stroke-linecap:round;stroke-linejoin:round;stroke-miterlimit:22.926;stroke-dasharray:none;stroke-opacity:1" transform="translate(167.118 289.377)" fill="none" stroke="#ffffff" stroke-width="30" stroke-linecap="round" stroke-linejoin="round" stroke-miterlimit="22.926" stroke-dasharray="none" stroke-opacity="" data-original="#000000" opacity="1"></path><path d="M0 0c13.269-13.269 13.269-34.782 0-48.05-13.269-13.269-34.781-13.269-48.05 0-13.268 13.268-13.268 34.781 0 48.05C-34.781 13.269-13.269 13.269 0 0z" style="stroke-width:30;stroke-linecap:round;stroke-linejoin:round;stroke-miterlimit:22.926;stroke-dasharray:none;stroke-opacity:1" transform="translate(354.732 354.827)" fill="none" stroke="#ffffff" stroke-width="30" stroke-linecap="round" stroke-linejoin="round" stroke-miterlimit="22.926" stroke-dasharray="none" stroke-opacity="" data-original="#000000" opacity="1"></path><path d="m0 0-120.926-120.926" style="stroke-width:30;stroke-linecap:round;stroke-linejoin:round;stroke-miterlimit:22.926;stroke-dasharray:none;stroke-opacity:1" transform="translate(135.963 135.87)" fill="none" stroke="#ffffff" stroke-width="30" stroke-linecap="round" stroke-linejoin="round" stroke-miterlimit="22.926" stroke-dasharray="none" stroke-opacity="" data-original="#000000" opacity="1"></path><path d="m0 0-40.843-40.842" style="stroke-width:30;stroke-linecap:round;stroke-linejoin:round;stroke-miterlimit:22.926;stroke-dasharray:none;stroke-opacity:1" transform="translate(87.913 183.92)" fill="none" stroke="#ffffff" stroke-width="30" stroke-linecap="round" stroke-linejoin="round" stroke-miterlimit="22.926" stroke-dasharray="none" stroke-opacity="" data-original="#000000" opacity="1"></path><path d="m0 0-40.842-40.842" style="stroke-width:30;stroke-linecap:round;stroke-linejoin:round;stroke-miterlimit:22.926;stroke-dasharray:none;stroke-opacity:1" transform="translate(184.014 87.82)" fill="none" stroke="#ffffff" stroke-width="30" stroke-linecap="round" stroke-linejoin="round" stroke-miterlimit="22.926" stroke-dasharray="none" stroke-opacity="" data-original="#000000" opacity="1"></path></g></g></svg>