<svg xmlns="http://www.w3.org/2000/svg" version="1.1" xmlns:xlink="http://www.w3.org/1999/xlink" width="512" height="512" x="0" y="0" viewBox="0 0 24 24" style="enable-background:new 0 0 512 512" xml:space="preserve" class=""><g><path d="M20.545 15.581c.069-.49.053-.979-.056-1.462-.017-.077.035-.174.125-.233a4.083 4.083 0 0 0 1.367-1.475 3.981 3.981 0 0 0 .494-1.94 3.996 3.996 0 0 0-.494-1.954 4.098 4.098 0 0 0-1.368-1.476c-.089-.058-.141-.155-.124-.234a4.09 4.09 0 0 0-.066-2.053 4.023 4.023 0 0 0-2.739-2.738 4.104 4.104 0 0 0-2.051-.065c-.085.013-.175-.034-.233-.124A4.095 4.095 0 0 0 13.925.459a4.027 4.027 0 0 0-3.873 0 4.092 4.092 0 0 0-1.474 1.368c-.058.089-.157.14-.234.124a4.104 4.104 0 0 0-2.053.066 4.022 4.022 0 0 0-2.736 2.736 4.087 4.087 0 0 0-.067 2.055c.018.078-.035.176-.124.233a4.092 4.092 0 0 0-1.369 1.476 3.981 3.981 0 0 0-.494 1.94 3.996 3.996 0 0 0 .494 1.954 4.096 4.096 0 0 0 1.368 1.476c.089.058.142.156.124.233a4.014 4.014 0 0 0-.054 1.482l-3.434 3.434h5v5l4.197-4.197c.254.24.537.453.856.63.597.331 1.266.496 1.936.496a4.005 4.005 0 0 0 2.803-1.138L19 24.036v-5h5l-3.455-3.455Zm-7.667 1.893a1.126 1.126 0 0 1-.409.371c-.288.16-.675.159-.961 0a1.137 1.137 0 0 1-.409-.372 3.263 3.263 0 0 0-2.727-1.5c-.23 0-.461.025-.691.078-.177.04-.367.032-.562-.024a1.028 1.028 0 0 1-.68-.681 1.103 1.103 0 0 1-.024-.562c.296-1.304-.276-2.678-1.422-3.417a1.127 1.127 0 0 1-.372-.409 1.01 1.01 0 0 1-.118-.5c0-.177.04-.345.118-.487a1.13 1.13 0 0 1 .371-.408c1.147-.74 1.719-2.114 1.423-3.418a1.115 1.115 0 0 1 .024-.562 1.03 1.03 0 0 1 .679-.68c.198-.056.387-.063.562-.025 1.306.298 2.679-.275 3.42-1.423.096-.149.233-.273.407-.37.288-.16.675-.161.963 0 .175.097.312.221.409.371.741 1.147 2.111 1.72 3.418 1.423.176-.04.366-.032.562.024.317.091.59.364.682.682.056.195.064.385.024.561-.297 1.305.275 2.679 1.423 3.419.148.096.273.233.37.408.078.142.119.31.118.5 0 .177-.04.345-.118.487a1.137 1.137 0 0 1-.37.408c-1.148.74-1.72 2.115-1.423 3.417.04.178.032.367-.024.563a1.03 1.03 0 0 1-.681.681 1.122 1.122 0 0 1-.561.024c-1.302-.292-2.677.275-3.419 1.423ZM16.56 9.06l-3.793 3.793c-.487.487-1.127.731-1.768.731s-1.28-.244-1.768-.731L6.938 10.56l2.121-2.121 1.939 1.939 3.439-3.439 2.121 2.121Z" fill="#ffffff" opacity="1" data-original="#000000" class=""></path></g></svg>