<svg xmlns="http://www.w3.org/2000/svg" version="1.1" xmlns:xlink="http://www.w3.org/1999/xlink" width="512" height="512" x="0" y="0" viewBox="0 0 24 24" style="enable-background:new 0 0 512 512" xml:space="preserve" class=""><g><path d="M17 17.5a1.5 1.5 0 0 1-1.5 1.5h-7a1.5 1.5 0 0 1 0-3h7a1.5 1.5 0 0 1 1.5 1.5zm5-10.343V18.5a5.506 5.506 0 0 1-5.5 5.5h-9A5.506 5.506 0 0 1 2 18.5v-13A5.506 5.506 0 0 1 7.5 0h7.343a5.464 5.464 0 0 1 3.889 1.611l1.657 1.657A5.464 5.464 0 0 1 22 7.157zM18.985 7H17a2 2 0 0 1-2-2V3.016C14.947 3.012 7.5 3 7.5 3A2.5 2.5 0 0 0 5 5.5v13A2.5 2.5 0 0 0 7.5 21h9a2.5 2.5 0 0 0 2.5-2.5S18.988 7.053 18.985 7zM14.5 9h-5a2.5 2.5 0 0 0 0 5h5a2.5 2.5 0 0 0 0-5z" fill="#ffffff" opacity="1" data-original="#000000" class=""></path></g></svg>