<svg width="715" height="715" viewBox="0 0 715 715" fill="none" xmlns="http://www.w3.org/2000/svg">
<path d="M581.161 414.45C581.078 414.333 580.984 414.212 580.884 414.107C580.884 414.107 579.032 412.065 575.444 408.464C573.948 406.96 571.512 406.957 570.012 408.457C568.508 409.953 568.497 412.413 570.002 413.885C573.388 417.284 575.154 419.225 575.188 419.263C576.611 420.832 579.038 420.955 580.611 419.529C582.079 418.203 582.284 416.013 581.161 414.45Z" fill="white"/>
<path d="M575.449 408.454C573.933 406.958 571.52 406.933 570.021 408.444C568.525 409.96 568.496 412.377 570.011 413.873C571.485 415.398 573.943 415.398 575.439 413.882C576.799 412.528 576.924 410.42 575.849 408.923C575.733 408.761 575.613 408.595 575.449 408.454Z" fill="white"/>
<path d="M564.975 398.522C564.826 398.314 564.673 398.102 564.444 397.958C560.876 394.658 557.067 391.285 553.049 387.798C551.731 386.664 549.811 386.537 548.356 387.582C548.106 387.761 547.886 387.982 547.667 388.203C546.438 389.652 546.527 391.795 547.584 393.179L547.48 393.121L548.053 393.655C548.124 393.667 548.184 393.75 548.256 393.762C552.079 397.067 555.79 400.391 559.268 403.566C560.032 404.278 560.997 404.657 562.033 404.606C563.068 404.556 563.989 404.083 564.66 403.35C565.906 402.013 566.02 399.977 564.975 398.522ZM542.051 378.803C541.871 378.554 541.662 378.262 541.37 378.031C537.541 374.982 533.509 371.826 529.365 368.688C528.035 367.626 526.201 367.619 524.829 368.605C524.538 368.814 524.235 369.094 524.034 369.428C522.782 371.02 523.098 373.567 524.732 374.789C528.936 378.01 532.911 381.087 536.538 384.029C537.898 385.133 539.832 385.193 541.258 384.107C541.507 383.927 541.727 383.707 541.947 383.486C543.044 382.118 543.066 380.217 542.051 378.803ZM518.041 360.557C517.772 360.183 517.492 359.88 517.158 359.679C513.151 356.82 509.001 353.938 504.839 351.128C504.809 351.086 504.708 351.033 504.636 351.021L504.475 350.885C503.17 350.121 501.509 350.178 500.262 351.074C499.888 351.343 499.543 351.654 499.3 352.017C498.168 353.776 498.65 356.203 500.367 357.365C504.401 360.085 508.417 362.868 512.689 365.92L513.938 366.782L513.67 366.407C514.778 366.809 516.054 366.655 517.079 365.976C517.453 365.707 517.765 365.351 518.041 365.033C518.998 363.646 518.997 361.888 518.041 360.557ZM492.958 343.713C492.689 343.339 492.31 342.987 491.916 342.702C487.555 339.965 483.216 337.346 478.939 334.814C477.603 334.008 475.901 334.096 474.684 335.033C474.268 335.332 473.915 335.718 473.66 336.153C472.596 337.919 473.224 340.374 475.033 341.401C479.141 343.872 483.454 346.454 487.809 349.182C489.132 350.06 490.793 350.002 492.04 349.106C492.456 348.807 492.812 348.426 493.097 348.032C493.941 346.663 493.884 345.002 492.958 343.713ZM466.962 328.407C466.693 328.032 466.412 327.73 466.049 327.486L465.715 327.285C465.655 327.202 465.584 327.19 465.512 327.178C461.242 324.831 456.78 322.481 452.281 320.166C450.994 319.514 449.479 319.6 448.356 320.406C447.816 320.794 447.403 321.273 447.095 321.81C446.165 323.675 446.916 326.036 448.784 326.97C453.284 329.285 457.7 331.661 462.015 333.983C463.321 334.747 464.88 334.636 466.086 333.77C466.543 333.441 466.938 333.025 467.249 332.493C467.939 331.172 467.828 329.613 466.962 328.407ZM440.083 314.68C439.725 314.181 439.241 313.771 438.663 313.493L438.631 313.447C438.529 313.394 438.461 313.387 438.431 313.345C433.965 311.251 429.391 309.184 424.761 307.214C423.534 306.646 422.118 306.781 420.995 307.587C420.454 307.975 419.991 308.56 419.701 309.209C418.882 311.052 419.819 313.411 421.708 314.198C426.225 316.186 430.801 318.257 435.366 320.4C436.624 321.01 438.111 320.887 439.246 320.009C439.745 319.651 440.196 319.138 440.432 318.589C441.042 317.332 440.889 315.803 440.083 314.68ZM412.4 302.729C411.952 302.105 411.367 301.642 410.718 301.352C406.136 299.537 401.328 297.758 396.479 296.009C395.257 295.625 393.913 295.771 392.903 296.56C392.279 297.008 391.846 297.634 391.545 298.355C390.901 300.267 391.951 302.607 393.861 303.247C398.71 304.996 403.446 306.764 407.858 308.518C409.068 308.973 410.413 308.827 411.482 308.122C412.106 307.674 412.569 307.089 412.87 306.368C413.364 305.125 413.146 303.768 412.4 302.729ZM383.983 292.565C383.505 291.9 382.846 291.421 382.086 291.154C377.303 289.672 372.377 288.167 367.469 286.775C366.379 286.486 365.207 286.698 364.265 287.317C363.517 287.855 362.989 288.612 362.777 289.458C362.193 291.453 363.445 293.636 365.414 294.183C370.149 295.51 374.902 296.95 379.471 298.396L379.716 298.473C380.865 298.845 382.112 298.649 383.11 297.933C383.775 297.455 384.288 296.765 384.56 296.002C384.929 294.848 384.699 293.563 383.983 292.565ZM354.967 284.464C354.429 283.716 353.645 283.151 352.758 282.968C347.612 281.684 342.756 280.627 337.89 279.646C336.83 279.399 335.763 279.667 334.889 280.295C334.099 280.862 333.557 281.687 333.404 282.616C332.936 284.597 334.347 286.736 336.365 287.177C341.302 288.17 346.227 289.235 350.956 290.377C352.046 290.666 353.259 290.425 354.174 289.768C354.851 289.218 355.382 288.465 355.564 287.578C355.847 286.48 355.594 285.338 354.967 284.464ZM325.442 278.375C324.847 277.547 323.944 276.992 322.947 276.832C317.731 275.976 312.887 275.288 308.109 274.692C308.038 274.68 307.966 274.669 307.895 274.657L307.323 274.563L307.353 274.605C306.573 274.66 305.839 274.866 305.215 275.314C304.312 275.9 303.749 276.872 303.573 277.943C303.358 279.926 304.863 281.934 306.792 282.25L306.938 282.278C306.98 282.248 307.01 282.289 307.081 282.301C311.975 282.884 316.876 283.651 321.663 284.436C322.708 284.574 323.692 284.365 324.524 283.768C325.356 283.17 325.94 282.316 326.143 281.282C326.277 280.24 326.042 279.211 325.442 278.375ZM295.544 274.576C294.887 273.661 293.874 273.128 292.764 272.986C287.802 272.572 282.688 272.21 277.566 271.924C276.697 271.855 275.84 272.155 275.092 272.693C274.177 273.35 273.602 274.393 273.558 275.559C273.444 277.595 275.115 279.484 277.181 279.639C281.878 279.859 286.705 280.174 291.95 280.63L292.096 280.658C292.965 280.727 293.881 280.511 294.588 280.003C295.533 279.387 296.149 278.314 296.265 277.159C296.299 276.24 296.082 275.324 295.544 274.576ZM265.424 273.011C264.737 272.055 263.592 271.427 262.339 271.438C257.179 271.362 252.078 271.369 247.139 271.513C246.401 271.539 245.627 271.779 245.004 272.227C243.964 272.973 243.366 274.159 243.411 275.451C243.44 277.51 245.319 279.249 247.349 279.178C252.247 279.064 257.276 279.045 262.252 279.128C263.062 279.114 263.903 278.881 264.542 278.366C265.54 277.649 266.126 276.535 266.141 275.326C266.171 274.491 265.931 273.718 265.424 273.011ZM235.324 273.758C234.547 272.676 233.248 272.096 231.945 272.213C226.914 272.492 221.811 272.936 216.816 273.441C216.108 273.508 215.406 273.76 214.851 274.215C213.769 274.992 213.192 276.295 213.336 277.636C213.549 279.689 215.524 281.296 217.576 281.083C222.432 280.558 227.445 280.166 232.453 279.854L232.495 279.824C233.158 279.782 233.818 279.56 234.359 279.172C235.482 278.366 236.091 277.108 236.017 275.775C235.997 275.046 235.745 274.344 235.324 273.758ZM205.325 276.839C204.489 275.675 203.089 275.042 201.661 275.248C196.853 275.927 191.767 276.743 186.668 277.632C186.103 277.722 185.556 277.926 185.057 278.285C183.922 279.162 183.277 280.634 183.558 282.078C183.896 284.041 185.864 285.465 187.843 285.235L188 285.191C188.072 285.203 188.185 285.185 188.268 285.125C193.027 284.291 197.918 283.553 202.725 282.873C203.403 282.765 203.992 282.531 204.491 282.173C205.626 281.295 206.217 279.924 206.044 278.542C205.917 277.927 205.684 277.338 205.325 276.839ZM175.669 282.065C174.773 280.817 173.218 280.232 171.736 280.539C166.984 281.557 162.136 282.707 156.925 284.053C156.432 284.156 155.956 284.371 155.54 284.67C154.322 285.608 153.767 287.204 154.143 288.693C154.654 290.721 156.8 291.954 158.79 291.477C163.536 290.274 168.452 289.132 173.36 288.066C173.854 287.963 174.332 287.752 174.748 287.453C176.026 286.599 176.611 285.044 176.315 283.491C176.183 282.956 175.964 282.476 175.669 282.065ZM146.455 289.487C145.708 288.447 144.525 287.853 143.314 287.834L143.938 287.386L142.255 288.027C142.184 288.016 142.142 288.046 142.142 288.046C137.289 289.451 132.537 290.91 128 292.403C127.917 292.463 127.845 292.451 127.729 292.465L127.378 292.591L127.408 292.633C127.171 292.741 126.933 292.848 126.683 293.028C125.352 293.983 124.774 295.723 125.284 297.311C125.911 299.325 128.149 300.422 130.087 299.786C134.666 298.262 139.335 296.864 144.384 295.38C144.848 295.236 145.252 295.009 145.585 294.77C146.874 293.844 147.483 292.146 147.003 290.6C146.894 290.186 146.697 289.824 146.455 289.487Z" fill="white"/>
<path d="M117.75 298.863C116.771 297.499 114.966 296.892 113.312 297.493C110.904 298.372 108.485 299.277 106.066 300.201C104.085 300.962 103.094 303.181 103.855 305.162C104.597 307.125 106.834 308.134 108.811 307.376C111.199 306.462 113.575 305.575 115.952 304.706C117.943 303.976 118.968 301.771 118.238 299.78C118.116 299.452 117.95 299.142 117.75 298.863Z" fill="white"/>
<path d="M581.426 368.407C580.632 367.301 579.281 366.657 577.836 366.831C575.735 367.092 574.236 369.007 574.493 371.111L580.137 417.096L535.063 415.126C532.942 415.035 531.154 416.679 531.06 418.795C530.961 420.921 532.612 422.711 534.728 422.805L584.334 424.968C585.46 425.017 586.554 424.565 587.321 423.737C588.087 422.909 588.452 421.784 588.312 420.667L582.118 370.186C582.033 369.515 581.788 368.91 581.426 368.407Z" fill="white"/>
</svg>
